<?xml version="1.0" encoding="utf-8"?>
<!-- Generator: Adobe Illustrator 17.1.0, SVG Export Plug-In . SVG Version: 6.00 Build 0)  -->
<!DOCTYPE svg PUBLIC "-//W3C//DTD SVG 1.1//EN" "http://www.w3.org/Graphics/SVG/1.1/DTD/svg11.dtd">
<svg version="1.1" id="Layer_1" xmlns="http://www.w3.org/2000/svg" xmlns:xlink="http://www.w3.org/1999/xlink" x="0px" y="0px"
	 viewBox="0 0 657 224.5" enable-background="new 0 0 657 224.5" xml:space="preserve">
<g>
	<g>
		<path fill="#F15A24" d="M2.3,124.9c9.5-5,15.1-13.8,19.9-23C27.9,91,35,80.6,39.7,69.3c5.3-12.8,7.9-26.2,7.9-40
			c0-7.6,0.8-16.9-4.8-22.9c-5.3-5.7-12.5-1.7-15.4,3.9c-5,9.7-3.4,22.2-2.6,32.6c2.4,32.1,1.5,64.3,3.2,96.5c0.1,1.9,3,1.9,3,0
			c0-3.9,0-7.9,0-11.8c-1,0-2,0-3,0c0,3.9,0,7.9,0,11.8c1,0,2,0,3,0c-0.1-7.5-0.8-15-0.8-22.5c0-7,0.5-15.3,5.3-20.8
			c4.7-5.4,12-0.6,14.1,4.5c1.8,4.4,1.8,9.5,1.8,14.2c-0.1,8.1-1.8,18.5,5.1,24.5c7.9,6.9,16.3-2.9,20-9.3
			c5.3-9.1,11.4-20.7,7.7-31.4c-0.9-2.6-3.4-5.8-6.5-5.2c-4.3,0.7-7,5.1-8.6,8.8c-6.9,15.9,12.2,41.3,29.6,33.5
			c8.9-4,12-16.6,14.2-25c3.9-14.7,5.8-30,8.3-44.9c1.9-11.3,3.3-22.9,1.7-34.3c-0.7-5.1-4.9-15.4-11.8-10.9
			c-5,3.3-5.4,12.5-5.9,17.7c-1.5,15.7-1.7,31.5-2,47.3c-0.2,11.8-1.2,25.2,4.2,36.1c3.5,7.1,11.8,11.1,19.4,8.5
			c7.3-2.5,12.1-10.4,15.6-16.8c4-7.4,6.8-15.5,9.4-23.5c7.6-23.2,12.6-49.7,7.4-74c-1.3-5.9-5.6-10.6-10.7-4.7
			c-2.7,3.2-3.8,7.9-5.1,11.9c-2.3,7.1-3.1,14.4-3.6,21.8c-1.2,16.2-1.5,32.5-2.1,48.7c-0.5,11.2-1.4,25,6.4,34.2
			c7.2,8.3,19.9,4.6,27.9-0.1c9.5-5.6,15.8-14.7,19.7-24.8c4-10.2,4.8-21.8,0.4-32c-1.2-2.9-4.3-8.2-8.2-7.3
			c-4.9,1.1-6.6,5.9-7.7,10.4c-2.8,11.8-5.5,25.3-3.3,37.4c1.2,6.4,4.6,15.2,12.2,15.6c9.3,0.5,14.2-13.1,16.3-19.9
			c3.4-10.9,3.7-23.1-0.8-33.8c-2.2-5.3-6.5-15.3-13.2-16.1c-8.6-1-9.9,11.7-8.6,17.5c2.2,10,13.8,12.2,22.2,9.5
			c10.2-3.4,16.1-14.2,20.5-23.2c0.8-1.7-1.7-3.3-2.6-1.5c-5.3,10.7-12.7,23.4-26.3,22.9c-8.3-0.3-12.3-7.8-11.2-15.3
			c0.4-2.7,2-6.8,5.3-7c2.5-0.1,4.9,3.3,6.2,5.1c7.2,10,9.4,22.7,7.3,34.7c-1.2,7-10.6,33.7-20.3,20.8c-7.4-9.8-4.6-25.4-2.7-36.4
			c0.6-3.2,1.3-6.4,1.9-9.6c0.3-1.6,0.8-3.2,1.5-4.7c1.6-3.8,5.8-3,7.6-0.1c3.7,5.8,4.2,13.1,3.6,19.7c-1.2,13.2-8.3,25.9-18.9,33.8
			c-5.3,3.9-11.7,6.6-18.4,6.2c-8.2-0.4-11.9-8.1-13.3-15.1c-1.5-7.4-0.9-15.3-0.6-22.8c0.3-8.4,0.6-16.8,0.9-25.1
			c0.6-15.4,1-30.9,5.7-45.7c0.9-2.9,2-5.9,4-8.3c2.5-2.9,3.8,0.4,4.5,2.4c1.2,3.6,1.4,7.6,1.7,11.3c1.1,15.2-0.3,30-3.6,44.9
			c-2.5,11-5.9,21.8-10.1,32.2c-3.4,8.3-7.9,18-15.7,22.9c-4.1,2.6-8.7,2.1-12.7-0.2c-6-3.3-7.8-11.4-8.6-17.6
			c-1.9-15-0.5-30.8,0-45.9c0.4-11.3,0.1-23.6,3.3-34.6c0.6-1.9,1.4-4.2,3.2-5.3c2.8-1.8,5.2,3.3,5.8,5c1.6,4.5,1.6,9.6,1.5,14.4
			c-0.1,15.5-3.7,31-6.2,46.3c-2.2,12.9-4,27.6-11.1,38.9c-8.5,13.4-23.7,3.6-29.7-6.8c-3.1-5.5-3.9-12.2-1.4-18.1
			c1.1-2.4,4.4-8.1,7.7-5.4c3.1,2.5,2.7,8.7,2.2,12c-1.2,7.6-13,37-24.3,27.1c-4-3.5-3.6-10.8-3.5-15.7c0.1-4.5,0.3-9-0.1-13.5
			c-0.8-9.2-8-20.8-18.7-15c-5,2.7-6.9,10.1-7.6,15.3c-1.4,10.6,0,21.2,0.1,31.8c0,1.9,3,1.9,3,0c0-3.9,0-7.9,0-11.8
			c0-1.9-3-1.9-3,0c0,3.9,0,7.9,0,11.8c1,0,2,0,3,0c-1.4-26.5-1.3-53-2.3-79.5c-0.4-12.7-2.5-25.6-1.3-38.3
			c0.3-3.7,1.4-7.4,3.1-10.7c2.7-5.2,8.6-5.5,11.8-0.4c3.9,6.3,2.6,16.9,2.3,24c-0.4,12.7-3.7,25.2-9,36.7
			c-4.4,9.7-10.5,18.5-15.3,27.9c-4.7,9.2-10.1,18.2-19.5,23.2C-1,123.3,0.6,125.8,2.3,124.9L2.3,124.9z"/>
	</g>
</g>
<g>
	<g>
		<path fill="#F15A24" d="M267.9,4.4c8.2-5.7,9.2,14.4,9.4,18c0.6,9.2-0.1,18.6-1,27.7c-0.9,9.2-2.5,18.4-3.6,27.5
			c-1,8.1-2.3,16.5-1.1,24.7c1.4,9.7,8.6,20.2,19.8,17.4c12.8-3.2,11.2-23.6,8.8-32.9c-0.4-1.7-2.8-1.2-2.9,0.4
			c-0.7,7.5-0.5,16.9,4,23.3c5.1,7.2,13.8,2.8,15.9-4.2c1.6-5.2,1.2-11.2,1.2-16.5c0-8.8-0.4-17.7-0.7-26.5
			c-0.4-8.6-0.6-17.2-1.1-25.8c-0.3-4.2-1.1-10.6,2.8-13.5c5.5-4.1,8.7,6.4,8.8,9.6c0,1.9,3,1.9,3,0c0-4.1-1.4-9.1-5-11.4
			c-3.3-2.1-8.1-2.5-10.5,1.3c-3.4,5.5-2.1,12.5-1.8,18.6c0.4,9,0.7,17.9,1.1,26.9c0.4,8.8,0.6,17.6,0.4,26.5
			c-0.1,5.1,0.3,13.7-5.6,15.6c-10.2,3.3-9.9-18.4-9.4-23.8c-1,0.1-2,0.3-2.9,0.4c1.9,7.6,2.5,15.9-0.7,23.2
			c-3.5,8.1-11.9,7.5-17.5,2.1c-5.5-5.3-5.2-14.5-4.9-21.5c0.4-8.7,1.9-17.5,3.1-26.2c2.3-16,4.2-32.3,2.5-48.5
			c-0.7-6.5-3.9-21.8-13.5-15.1C264.8,3,266.3,5.6,267.9,4.4L267.9,4.4z"/>
	</g>
</g>
<g>
	<g>
		<path fill="#F15A24" d="M330.1,77.1c9.9,0.2,24.9,2.3,30.2-8.6c1.3-2.7-0.1-4.8-2.7-5.6c-3.4-1.1-7.6,2.7-9.7,4.9
			c-9,9.3-12.9,43.3,8.5,36.5c14.8-4.7,25.1-37.7,4.3-40.7c-8.2-1.2-15.8,7.1-10.1,14.3c4.9,6.3,18,7.8,24.9,4.7
			c9.8-4.4,14.6-14.7,20.6-23c-0.9-0.1-1.8-0.2-2.7-0.4c1.7,4.7,3.9,9.2,8,12.3c1.3,0.9,6,2.6,5.4,4.5c-0.7,2.4-2.5,4.6-3.8,6.7
			c-5.3,8.2-9.9,18.8-1.4,26.6c7.9,7.3,22,3.4,29.6-2.3c7.8-5.9,10.9-16.2,12.7-25.3c0.9-4.6,1.4-9.3,1.9-13.9
			c0.6-6.5,1.6-13.3,0.5-19.8c-0.7-4-2.1-9.7-6.1-11.8c-3.5-1.8-7.3-1-9.5,2.5c-2.5,4-2.7,8.6-2.7,13.2c0,6.6-0.1,13.4,0.8,20
			c1.5,10.5,5.4,20.1,14.4,26.2c7.2,4.9,17.2,6.2,25.4,3.5c8.7-2.8,14.6-10.6,18.8-18.3c5.8-10.7,9.6-23.1,12-34.9
			c1.6-7.8,4-20.3-3.4-26c-1-0.8-2.5-0.3-2.6,1.1c-1.3,23.8-1.5,48.3,7.8,70.6c0.7,1.7,3.5,1.1,2.9-0.8c-3.1-9.7-12.8-21.5-23-24.3
			c-3.6-1-7.8,0.5-10,3.5c-3.2,4.5-2.9,9.5-1,14.5c2.9,7.7,13.6,20.2,23,16.2c5.5-2.3,9.8-7,13.9-11.3c5.1-5.4,9.7-11.4,14.6-17.1
			c7.1-8.2,22-26.4,31.5-11.2c7.4,11.8-3.9,25.9-11.7,34.2c-8.9,9.3-18.5,17.8-27,27.6c-9.1,10.5-17.1,22.1-22.6,34.9
			c-5.2,12.1-8.7,26.5-7.6,39.7c0.8,9.9,7.1,16.6,16.1,20.1c9.7,3.8,21.1,5.3,31.4,3.1c11.8-2.6,14-13.3,16.6-23.5
			c3.1-12.3,10.9-22.3,21.8-28.6c9-5.2,22-9.2,31.8-3.9c5.2,2.8,8.7,9.8,7,15.6c-2.5,8.7-14.6,2.9-17.9-1.8
			c-7.8-10.9,0.6-25.3,8.3-33.4c7.5-8,17.5-13.2,28-16.1c8.3-2.3,20.9-5.6,27.5,1.9c1.3,1.4,3.4-0.7,2.1-2.1
			c-6.5-7.2-17.4-5.6-25.9-3.8c-10.9,2.4-20.8,6.8-29.5,13.9c-8.2,6.7-15.1,16.2-16.4,26.9c-1,8.3,3,17.9,11.4,20.8
			c8.1,2.8,16.1-1,15.8-10.3c-0.4-9-8.3-15.4-16.6-16.7c-19.9-3.1-40.3,12.3-47.8,29.8c-2.1,4.9-3,10-4.4,15.1
			c-2.4,8.8-8,13.1-17,14.1c-10.8,1.2-24.5-1.4-33-8.4c-11.2-9.1-5.7-29.2-2.5-40.9c4.2-15,12.7-28.3,22.3-40.3
			c8.3-10.3,17.8-19.3,27.2-28.5c7.9-7.7,15.6-16.5,17.6-27.7c1.5-8.4-2.8-18-11.4-20.5c-9.9-2.9-19.9,9.5-25.4,15.8
			c-5.5,6.3-10.7,12.9-16.4,19.1c-3.2,3.5-6.6,6.9-10.6,9.5c-5.9,4-11.4-0.5-15.6-4.7c-3.2-3.2-5.5-7.1-6.8-11.4
			c-1.9-6.5,2.6-12.9,9.7-11c4.5,1.2,8.1,5.5,11.2,8.8c3.5,3.9,6.7,8,8.3,13c1-0.3,1.9-0.5,2.9-0.8c-9.2-22.1-8.9-46.3-7.6-69.8
			c-0.9,0.4-1.7,0.7-2.6,1.1c4.9,3.8,4.1,10.7,3.6,16.3c-0.8,8.3-3.2,16.5-5.9,24.4c-3.9,11.6-8.8,24.6-19.6,31.5
			c-10.9,7-26.3,2.4-33.8-7.4c-8.2-10.7-7.2-26-7.2-38.7c0-3.2,0.3-6.4,1.7-9.3c3.5-7.4,9,0.7,10.1,4.3c2,7,0.6,15.1,0,22.2
			c-1,10.9-2.6,22.5-8.8,31.8c-7,10.6-33.8,17.4-34.3-1.3c-0.2-5.8,4.4-11.7,7.4-16.4c1.2-1.9,4.4-6.4,2.5-8.7
			c-1.4-1.6-3.6-2.3-5.4-3.4c-4.1-2.5-6.3-7.1-7.8-11.4c-0.5-1.3-2-1.4-2.7-0.4c-4.9,6.8-8.9,14.8-15.8,19.9
			c-6.3,4.6-15,3.5-21.6,0.3c-1.3-0.6-2.3-1.5-3.3-2.5c-3.5-3.6,0.6-7.6,3.9-8.9c5.6-2.1,10.4,2.3,12.1,7.3
			c2.2,6.6-0.6,14.2-4.2,19.7c-3.4,5.2-12.1,11.7-17.9,6.2c-4.2-4-3.5-12.1-2.5-17.3c0.8-4.1,2.5-8,4.7-11.5c1.1-1.7,2.6-3,4.1-4.1
			c1.8-1.4,5.7-1.5,3.7,1.6c-4.8,7.6-18.9,5.2-26.5,5.1C328.1,74.1,328.1,77.1,330.1,77.1L330.1,77.1z"/>
	</g>
</g>
<g>
	<g>
		<path fill="#F15A24" d="M328,33.3c-0.4,6.2-3.3,11.8-4.1,18c-0.6,5-1,11.3,0,16.3c0.8,4.1,2.8,7.9,6.6,9.9
			c3.1,1.7,7.2,0.6,10.4-0.1c1.9-0.4,1.1-3.3-0.8-2.9c-4.5,0.9-8.2,1.6-11.3-2.6c-2.9-3.9-2.1-9.4-2.1-14c0-4.4,0.3-8.6,1.5-12.8
			c1.1-4,2.5-7.7,2.8-11.8C331.1,31.4,328.1,31.4,328,33.3L328,33.3z"/>
	</g>
</g>
<g>
	<g>
		<path fill="#F15A24" d="M263.2,5.8c3.1-1.4,6.2-2.4,9.6-2.9c1.9-0.3,1.1-3.2-0.8-2.9c-3.6,0.5-7,1.6-10.3,3.2
			C259.9,4,261.5,6.6,263.2,5.8L263.2,5.8z"/>
	</g>
</g>
<g>
	<g>
		<path fill="#F15A24" d="M220.8,62.5c0.7-3.1,2.2-6,5.4-7.2c4.4-1.6,7.3,6.5,8.2,9.2c1.9,5.5,2,11.6,2.1,17.4
			c0.1,6.3,0.1,12.5,0.5,18.8c0.2,3.5,0.2,6.9,0.4,10.4c0.1,1.9,0.3,4-1.1,5.7c-0.5,0.6-3.6,3.3-4.3,1.3c-0.2,0.6-0.5,1.1-0.7,1.7
			c3-1.8,3.9-0.2,3.4,2.8c-0.4,2.1-1.9,4.9-4.5,4.4c0.3,0.7,0.6,1.5,0.9,2.2c1.5-3.1,5.8-7.5,2.1-11c-6.2-5.9-1.3-19.4,0.7-26.4
			c3.7-12.7,8.9-24.9,11.9-37.8c2.2-9.3,4.5-18.6,7.2-27.8c1-3.1,5.2-20.5,10-19.8c1.9,0.3,1.9-2.7,0-3c-5.5-0.7-8.6,9.9-10,13.5
			c-3.8,10.1-6.4,20.6-8.9,31c-2.8,11.8-6.3,23-10.3,34.5c-3,8.5-5.5,17.1-6.3,26.1c-0.2,2.5-0.7,6.8,0.9,9c1.3,1.8,3.9,3.5,2.4,6.3
			c-0.7,1.4-1.7,2.5-2.4,3.9c-0.4,0.8-0.1,2,0.9,2.2c10.5,2,11.3-19.3,0.4-12.7c-0.5,0.3-0.9,1.1-0.7,1.7c2,5.4,9.3,2.4,10.7-2.1
			c1.5-4.9,0.5-11.1,0.1-16.1c-0.4-6.3-0.5-12.5-0.5-18.8c0-9.5-0.8-20.2-7.5-27.6c-5.7-6.3-12.8,1.9-14.1,7.5
			C217.4,63.6,220.3,64.4,220.8,62.5L220.8,62.5z"/>
	</g>
</g>
<g>
	<g>
		<path fill="#F15A24" d="M234.1,116.1c-3.3,0-10.9,0.1-9.8,5.4c1.4,6.7,10,4.7,12.1-0.4c0.7-1.8-2.2-2.6-2.9-0.8
			c-0.6,1.4-2.2,2.4-3.6,2.6c-1.3,0.2-3-0.9-2.6-2.4c0.2-0.8,2.3-1,2.9-1.1c1.3-0.2,2.6-0.2,3.9-0.2
			C236,119.1,236,116.1,234.1,116.1L234.1,116.1z"/>
	</g>
</g>
</svg>
